<svg width="143" height="195" viewBox="0 0 143 195" fill="none" xmlns="http://www.w3.org/2000/svg">
    <g filter="url(#filter0_d_113_2836)">
        <path d="M57.3682 115.563L73.853 125.081L40.3776 183.062L30.7695 161.633L57.3682 115.563Z" fill="#CE4444" />
        <path d="M57.3682 115.563L40.8834 106.046L7.40803 164.027L30.7695 161.633L57.3682 115.563Z" fill="#983535" />
        <path d="M80.8857 115.563L64.401 125.081L97.8763 183.062L107.484 161.633L80.8857 115.563Z" fill="#983535" />
        <path d="M80.8857 115.563L97.3705 106.046L130.846 164.027L107.484 161.633L80.8857 115.563Z" fill="#CE4444" />
        <circle cx="68.6211" cy="75.6408" r="57.2539" fill="url(#paint0_linear_113_2836)" stroke="#765C00" />
        <circle cx="68.6219" cy="75.6408" r="44.3016" fill="#A88300" />
        <mask id="mask0_113_2836" style="mask-type:alpha" maskUnits="userSpaceOnUse" x="26" y="35" width="90"
            height="90">
            <circle cx="70.9867" cy="80.3703" r="44.4047" fill="#C28B37" />
        </mask>
        <g mask="url(#mask0_113_2836)">
            <circle cx="68.6215" cy="75.6408" r="44.4047" fill="#C09525" />
        </g>
        <path
            d="M68.8612 44.7495L78.4399 63.9069L97.5973 66.3016L84.4425 81.0528L88.0186 102.222L68.8612 92.643L49.7037 102.222L53.3117 81.0528L40.125 66.3016L59.2824 63.9069L68.8612 44.7495Z"
            fill="url(#paint1_linear_113_2836)" />
        <path
            d="M13.7449 41.2361L19.9904 27.4907L13.7449 13.7454L27.4902 19.9909L41.2356 13.7454L34.99 27.4907L41.2356 41.2361L27.4902 34.9905L13.7449 41.2361Z"
            fill="white" />
    </g>
    <defs>
        <filter id="filter0_d_113_2836" x="6.62471" y="12.9619" width="135.973" height="181.852"
            filterUnits="userSpaceOnUse" color-interpolation-filters="sRGB">
            <feFlood flood-opacity="0" result="BackgroundImageFix" />
            <feColorMatrix in="SourceAlpha" type="matrix" values="0 0 0 0 0 0 0 0 0 0 0 0 0 0 0 0 0 0 127 0"
                result="hardAlpha" />
            <feOffset dx="5.48449" dy="5.48449" />
            <feGaussianBlur stdDeviation="3.13399" />
            <feComposite in2="hardAlpha" operator="out" />
            <feColorMatrix type="matrix" values="0 0 0 0 0 0 0 0 0 0 0 0 0 0 0 0 0 0 0.3 0" />
            <feBlend mode="normal" in2="BackgroundImageFix" result="effect1_dropShadow_113_2836" />
            <feBlend mode="normal" in="SourceGraphic" in2="effect1_dropShadow_113_2836" result="shape" />
        </filter>
        <linearGradient id="paint0_linear_113_2836" x1="68.6211" y1="18.8869" x2="68.6211" y2="132.395"
            gradientUnits="userSpaceOnUse">
            <stop stop-color="#FFC600" />
            <stop offset="1" stop-color="#FFDE69" />
        </linearGradient>
        <linearGradient id="paint1_linear_113_2836" x1="68.8612" y1="44.7495" x2="68.8612" y2="102.222"
            gradientUnits="userSpaceOnUse">
            <stop stop-color="#FFFCDD" />
            <stop offset="1" stop-color="#FFE896" />
        </linearGradient>
    </defs>
</svg>