<svg width="24" height="24" viewBox="0 0 24 24" fill="none" xmlns="http://www.w3.org/2000/svg">
    <g clip-path="url(#clip0_172_931)">
        <path
            d="M23.0279 12.2245C23.0279 11.2413 22.9495 10.5238 22.7799 9.77966H11.7495V14.2176H18.2241C18.0936 15.3205 17.3887 16.9815 15.8222 18.0976L15.8003 18.2462L19.2879 20.9964L19.5295 21.0209C21.7486 18.9347 23.0279 15.8653 23.0279 12.2245Z"
            fill="#4285F4" />
        <path
            d="M11.7496 23.9176C14.9216 23.9176 17.5845 22.8545 19.5296 21.0209L15.8223 18.0976C14.8302 18.8018 13.4987 19.2934 11.7496 19.2934C8.64282 19.2934 6.006 17.2074 5.06605 14.324L4.92827 14.3359L1.30182 17.1927L1.25439 17.3269C3.18632 21.2334 7.15464 23.9176 11.7496 23.9176Z"
            fill="#34A853" />
        <path
            d="M5.06623 14.3239C4.81822 13.5798 4.67468 12.7825 4.67468 11.9587C4.67468 11.1349 4.81822 10.3376 5.05318 9.59354L5.04661 9.43507L1.37472 6.53235L1.25459 6.59052C0.458348 8.21162 0.00146484 10.032 0.00146484 11.9587C0.00146484 13.8854 0.458348 15.7058 1.25459 17.3269L5.06623 14.3239Z"
            fill="#FBBC05" />
        <path
            d="M11.7496 4.62403C13.9556 4.62403 15.4437 5.59401 16.2922 6.40461L19.6078 3.10928C17.5715 1.1826 14.9216 0 11.7496 0C7.15464 0 3.18632 2.68406 1.25439 6.59056L5.05299 9.59359C6.00599 6.7102 8.64281 4.62403 11.7496 4.62403Z"
            fill="#EB4335" />
    </g>
    <defs>
        <clipPath id="clip0_172_931">
            <rect width="23.04" height="24" fill="white" />
        </clipPath>
    </defs>
</svg>