<svg width="24" height="24" viewBox="0 0 24 24" fill="none" xmlns="http://www.w3.org/2000/svg">
    <path opacity="0.4" fill-rule="evenodd" clip-rule="evenodd"
        d="M17.5748 3.28398C15.8548 2.73398 13.4738 2.96198 11.9878 4.64798C10.4268 2.97398 8.12679 2.73098 6.41879 3.28498C2.50379 4.54498 1.28279 9.08098 2.39679 12.56V12.561C4.15479 18.032 9.99979 20.983 12.0018 20.983C13.7888 20.983 19.8658 18.087 21.6038 12.56C22.7178 9.08198 21.4938 4.54598 17.5748 3.28398Z"
        fill="black" />
    <path
        d="M17.6317 10.6981H17.6567C18.0587 10.6981 18.3917 10.3791 18.4057 9.97307C18.4647 8.22707 17.4237 6.94407 15.8157 6.78007C15.4057 6.73607 15.0357 7.03907 14.9927 7.45007C14.9507 7.86207 15.2507 8.23007 15.6627 8.27207C16.4737 8.35507 16.9387 8.97207 16.9067 9.92307C16.8927 10.3371 17.2177 10.6831 17.6317 10.6981Z"
        fill="black" />
</svg>