<svg width="40" height="40" viewBox="0 0 40 40" fill="none" xmlns="http://www.w3.org/2000/svg">
    <rect width="40" height="40" rx="20" fill="url(#paint0_linear_231_1767)" fill-opacity="0.25" />
    <rect x="6" y="6" width="28" height="28" rx="14" fill="url(#paint1_linear_231_1767)" />
    <path
        d="M19.9995 14C20.3878 14 20.746 14.2009 20.9429 14.5304L26.8496 24.3875C27.0492 24.7196 27.0492 25.1295 26.8551 25.4616C26.6609 25.7937 26.2972 26 25.9062 26H14.0928C13.7018 26 13.3381 25.7937 13.1439 25.4616C12.9498 25.1295 12.9525 24.717 13.1494 24.3875L19.0561 14.5304C19.253 14.2009 19.6112 14 19.9995 14ZM19.9995 17.4286C19.6358 17.4286 19.3432 17.7152 19.3432 18.0714V21.0714C19.3432 21.4277 19.6358 21.7143 19.9995 21.7143C20.3632 21.7143 20.6558 21.4277 20.6558 21.0714V18.0714C20.6558 17.7152 20.3632 17.4286 19.9995 17.4286ZM20.8746 23.4286C20.8746 23.2012 20.7824 22.9832 20.6183 22.8225C20.4541 22.6617 20.2316 22.5714 19.9995 22.5714C19.7674 22.5714 19.5448 22.6617 19.3807 22.8225C19.2166 22.9832 19.1244 23.2012 19.1244 23.4286C19.1244 23.6559 19.2166 23.8739 19.3807 24.0347C19.5448 24.1954 19.7674 24.2857 19.9995 24.2857C20.2316 24.2857 20.4541 24.1954 20.6183 24.0347C20.7824 23.8739 20.8746 23.6559 20.8746 23.4286Z"
        fill="white" />
    <defs>
        <linearGradient id="paint0_linear_231_1767" x1="40" y1="40" x2="-7.59641" y2="26.1999"
            gradientUnits="userSpaceOnUse">
            <stop stop-color="#FF5A5F" />
            <stop offset="1" stop-color="#FF9094" />
        </linearGradient>
        <linearGradient id="paint1_linear_231_1767" x1="34" y1="34" x2="0.682514" y2="24.3399"
            gradientUnits="userSpaceOnUse">
            <stop stop-color="#FF5A5F" />
            <stop offset="1" stop-color="#FF9094" />
        </linearGradient>
    </defs>
</svg>